HIERARCHY
ROOT Hips
{
  OFFSET 0.0000 0.0000 0.0000
  CHANNELS 6 Xposition Yposition Zposition Zrotation Xrotation Yrotation
  JOINT LeftHip
  {
    OFFSET 5.5000 0.0000 0.0000
    CHANNELS 3 Zrotation Xrotation Yrotation
    JOINT LeftKnee
    {
      OFFSET -0.0000 -17.5000 0.0000
      CHANNELS 3 Zrotation Xrotation Yrotation
      JOINT LeftAnkle
      {
        OFFSET 0.0000 -17.0000 0.0000
        CHANNELS 3 Zrotation Xrotation Yrotation
        End Site
        {
            OFFSET 0.0000 -4.7000 -2.0000
        }
      }
    }
  }
  JOINT RightHip
  {
    OFFSET -5.5000 -0.0000 -0.0000
    CHANNELS 3 Zrotation Xrotation Yrotation
    JOINT RightKnee
    {
      OFFSET -0.0000 -17.5000 0.0000
      CHANNELS 3 Zrotation Xrotation Yrotation
      JOINT RightAnkle
      {
        OFFSET -0.0000 -17.0000 0.0000
        CHANNELS 3 Zrotation Xrotation Yrotation
        End Site
        {
            OFFSET 0.0000 -4.7000 -2.0000
        }
      }
    }
  }
  JOINT Chest
  {
    OFFSET 0.0000 3.0000 -1.0000
    CHANNELS 3 Zrotation Xrotation Yrotation
    JOINT LeftCollar
    {
      OFFSET 0.0000 18.0000 1.0000
      CHANNELS 3 Zrotation Xrotation Yrotation
      JOINT LeftShoulder
      {
        OFFSET 6.5000 -0.0000 0.0000
        CHANNELS 3 Zrotation Xrotation Yrotation
        JOINT LeftElbow
        {
          OFFSET 0.0000 -11.0000 -0.0000
          CHANNELS 3 Zrotation Xrotation Yrotation
          JOINT LeftWrist
          {
            OFFSET 0.0000 -10.5000 0.0000
            CHANNELS 3 Zrotation Xrotation Yrotation
            End Site
            {
                OFFSET -0.0000 -6.0000 0.0000
            }
          }
        }
      }
    }
    JOINT RightCollar
    {
      OFFSET 0.0000 18.0000 1.0000
      CHANNELS 3 Zrotation Xrotation Yrotation
      JOINT RightShoulder
      {
        OFFSET -6.5000 -0.0000 0.0000
        CHANNELS 3 Zrotation Xrotation Yrotation
        JOINT RightElbow
        {
          OFFSET 0.0000 -11.0000 0.0000
          CHANNELS 3 Zrotation Xrotation Yrotation
          JOINT RightWrist
          {
            OFFSET 0.0000 -10.5000 0.0000
            CHANNELS 3 Zrotation Xrotation Yrotation
            End Site
            {
                OFFSET 0.0000 -6.0000 -0.0000
            }
          }
        }
      }
    }
    JOINT Neck
    {
      OFFSET 0.0000 18.0000 1.0000
      CHANNELS 3 Zrotation Xrotation Yrotation
      JOINT Head
      {
        OFFSET 0.0000 3.0000 0.0000
        CHANNELS 3 Zrotation Xrotation Yrotation
        End Site
        {
            OFFSET -0.0000 7.0000 -0.0000
        }
      }
    }
  }
}
MOTION
Frames:	14
Frame Time:	0.033333
14.7594 40.8190 8.6599 -6.44 3.45 -44.82 3.84 -12.22 18.29 0.00 17.46 0.20 2.87 -7.27 2.08 -8.64 -11.30 -17.17 0.00 40.03 -3.24 13.59 3.16 2.64 0.63 23.73 11.40 0.00 0.00 0.00 25.34 31.11 -34.42 0.00 -74.70 4.77 -31.96 13.68 -45.01 0.00 0.00 0.00 -23.30 -57.93 -3.49 180.00 -41.61 176.03 -61.17 -48.57 33.63 0.00 0.00 0.00 -0.78 8.98 0.12 
15.0150 40.7333 9.2029 -7.12 2.88 -41.89 3.09 -11.88 17.22 0.00 18.44 0.13 2.45 -7.81 1.08 -8.34 -13.65 -16.78 -0.00 43.62 -3.05 13.29 4.06 1.77 0.28 24.15 11.07 0.00 0.00 0.00 25.21 30.66 -35.15 -0.00 -75.38 4.93 -32.28 13.82 -44.81 0.00 0.00 0.00 -23.40 -57.98 -3.23 180.00 -41.67 176.09 -61.22 -48.86 33.42 0.00 0.00 0.00 -1.05 8.97 0.08 
14.8034 40.6868 9.8565 -7.60 2.34 -38.68 2.65 -11.07 16.27 -0.00 19.27 0.20 1.93 -8.62 -0.39 -7.18 -15.64 -15.40 -0.00 44.65 -2.53 12.81 5.24 0.78 -0.15 24.44 10.87 0.00 0.00 0.00 24.67 30.38 -35.46 -0.00 -75.61 5.07 -32.34 14.33 -45.43 0.00 0.00 0.00 -23.51 -58.01 -2.67 180.00 -41.75 176.08 -61.16 -49.35 33.62 0.00 0.00 0.00 -1.37 8.81 0.10 
14.7083 40.6576 10.3952 -7.87 1.87 -35.30 2.03 -10.47 15.59 0.00 19.74 0.34 1.92 -9.21 -2.55 -6.09 -17.13 -13.81 0.00 44.38 -2.25 12.49 6.07 0.43 -0.52 24.64 10.23 0.00 0.00 0.00 23.92 30.20 -35.90 0.00 -75.42 5.18 -32.09 14.88 -45.75 0.00 0.00 0.00 -24.64 -57.89 -2.88 180.00 -41.81 176.17 -61.75 -49.44 33.24 0.00 0.00 0.00 -1.85 8.67 -0.26 
14.7461 40.6074 10.8389 -8.01 1.41 -31.68 1.27 -10.10 14.92 0.00 19.97 0.39 2.41 -9.56 -5.47 -5.11 -18.10 -12.00 0.00 42.31 -2.03 12.19 7.11 0.18 -0.79 24.78 9.69 0.00 0.00 0.00 23.89 29.94 -36.16 0.00 -75.23 5.15 -32.63 15.15 -45.18 0.00 0.00 0.00 -25.01 -57.81 -3.06 180.00 -41.83 176.25 -61.37 -49.49 33.31 0.00 0.00 0.00 -2.07 8.70 -0.41 
14.4481 40.6054 11.1068 -7.99 0.90 -27.60 1.07 -9.71 14.05 -0.00 20.15 0.32 2.25 -9.71 -8.66 -4.16 -18.73 -10.10 -0.00 38.54 -1.77 11.74 8.44 0.19 -1.15 24.76 9.67 0.00 0.00 0.00 24.03 29.65 -36.21 0.00 -75.15 5.15 -33.66 15.61 -44.34 0.00 0.00 0.00 -24.64 -57.88 -2.88 180.00 -41.82 176.27 -60.15 -49.82 34.33 0.00 0.00 0.00 -2.20 8.66 -0.32 
14.4489 40.5117 11.5960 -7.80 0.42 -23.53 0.21 -9.47 13.01 -0.00 20.71 0.24 2.65 -10.29 -11.52 -3.60 -18.81 -8.37 0.00 33.95 -1.55 10.96 9.51 1.12 -1.37 24.81 9.28 0.00 0.00 0.00 24.51 29.45 -36.50 0.00 -74.86 5.19 -34.45 15.43 -43.49 0.00 0.00 0.00 -24.47 -57.59 -3.21 180.00 -41.92 176.32 -59.73 -49.85 34.21 0.00 0.00 0.00 -2.14 8.67 -0.48 
14.1964 40.4465 11.9697 -7.41 0.02 -19.32 -0.23 -9.34 11.85 0.00 21.30 0.18 2.51 -10.76 -14.52 -2.95 -19.11 -6.64 0.00 29.12 -1.15 9.69 10.39 2.51 -1.61 24.93 9.11 0.00 0.00 0.00 24.91 29.61 -36.64 0.00 -74.55 5.30 -35.02 15.29 -43.37 0.00 0.00 0.00 -24.02 -57.36 -3.22 180.00 -41.97 176.30 -59.10 -50.14 34.45 0.00 0.00 0.00 -1.99 8.71 -0.58 
13.8981 40.3679 12.3510 -6.88 -0.27 -15.35 -0.64 -9.35 10.56 -0.00 22.07 0.13 2.23 -11.33 -17.19 -2.39 -19.60 -5.17 0.00 24.40 -0.73 7.78 10.96 5.16 -1.59 24.91 8.74 0.00 0.00 0.00 25.57 29.59 -36.68 0.00 -74.36 5.31 -35.57 14.89 -43.21 0.00 0.00 0.00 -23.51 -57.41 -3.41 -180.00 -41.90 176.33 -58.38 -49.94 34.64 0.00 0.00 0.00 -1.52 8.51 -0.69 
13.6237 40.3245 12.6785 -6.34 -0.45 -11.48 -1.00 -9.35 9.31 -0.00 22.54 0.16 2.07 -11.73 -19.67 -1.87 -20.54 -3.50 -0.00 20.05 -0.06 5.62 11.27 8.14 -1.41 24.74 8.43 0.00 0.00 0.00 25.91 29.58 -36.62 -0.00 -74.10 5.37 -35.80 14.51 -43.29 0.00 0.00 0.00 -23.20 -57.42 -3.57 180.00 -41.91 176.33 -57.96 -49.84 34.76 0.00 0.00 0.00 -1.18 8.13 -0.91 
13.4128 40.3242 13.0275 -5.91 -0.63 -7.31 -1.31 -9.20 8.24 0.00 22.82 0.30 2.17 -12.18 -22.43 -1.03 -21.19 -1.28 -0.00 16.18 0.80 3.03 10.81 10.89 -1.25 24.40 8.69 0.00 0.00 0.00 26.19 29.49 -36.41 -0.00 -73.82 5.35 -35.95 14.52 -43.73 0.00 0.00 0.00 -22.97 -57.56 -3.72 180.00 -41.90 176.35 -57.06 -49.93 35.74 0.00 0.00 0.00 -1.03 7.85 -0.94 
13.1937 40.3936 13.4853 -5.69 -0.82 -3.08 -1.41 -8.68 6.99 0.00 22.80 0.34 2.46 -12.83 -24.72 -0.38 -21.14 1.19 0.00 12.33 1.59 0.72 10.02 13.35 -0.98 23.94 8.82 0.00 0.00 0.00 25.98 29.08 -36.18 0.00 -73.82 5.36 -35.91 14.92 -43.81 0.00 0.00 0.00 -23.30 -57.82 -4.13 -180.00 -41.73 176.37 -56.70 -49.81 36.48 0.00 0.00 0.00 -0.99 7.61 -1.07 
13.1136 40.4183 13.8377 -5.37 -1.12 1.44 -1.66 -8.34 6.03 0.00 22.96 0.53 3.04 -13.58 -27.42 0.31 -20.42 3.98 -0.00 9.50 2.18 -1.39 8.99 15.52 -0.97 23.46 9.20 0.00 0.00 0.00 25.59 28.92 -35.96 0.00 -73.77 5.40 -35.89 15.53 -44.20 0.00 0.00 0.00 -23.53 -57.85 -4.22 -180.00 -41.75 176.34 -56.50 -50.06 37.16 0.00 0.00 0.00 -1.08 7.44 -1.10 
12.9068 40.3607 14.3043 -4.86 -1.37 5.91 -1.80 -8.19 4.81 -0.00 23.86 0.57 3.48 -14.96 -29.49 1.01 -20.37 6.64 0.00 9.54 2.37 -3.34 7.16 17.74 -0.98 23.03 9.22 0.00 0.00 0.00 25.38 28.72 -35.85 0.00 -73.63 5.39 -35.96 15.65 -44.24 0.00 0.00 0.00 -23.77 -57.81 -4.47 180.00 -41.78 176.34 -56.59 -50.04 37.14 0.00 0.00 0.00 -1.05 7.45 -1.21 
